<svg width="26" height="40" viewBox="0 0 26 40" fill="none" xmlns="http://www.w3.org/2000/svg">
<path d="M5.3499 0L0.649902 4.7L15.9166 20L0.649902 35.3L5.3499 40L25.3499 20L5.3499 0Z" fill="#060606"/>
<path d="M5.3499 0L0.649902 4.7L15.9166 20L0.649902 35.3L5.3499 40L25.3499 20L5.3499 0Z" fill="black" fill-opacity="0.2"/>
<path d="M5.3499 0L0.649902 4.7L15.9166 20L0.649902 35.3L5.3499 40L25.3499 20L5.3499 0Z" fill="black" fill-opacity="0.2"/>
<path d="M5.3499 0L0.649902 4.7L15.9166 20L0.649902 35.3L5.3499 40L25.3499 20L5.3499 0Z" fill="black" fill-opacity="0.2"/>
<path d="M5.3499 0L0.649902 4.7L15.9166 20L0.649902 35.3L5.3499 40L25.3499 20L5.3499 0Z" fill="black" fill-opacity="0.2"/>
</svg>
